<svg xmlns="http://www.w3.org/2000/svg" viewBox="0 0 32 32">
  <style>
    .tile { fill: #ffffff; stroke: #e4e4ea; }
    .glyph { stroke: #5b4ee6; }
    @media (prefers-color-scheme: dark) {
      .tile { fill: #1f2028; stroke: #3a3b47; }
      .glyph { stroke: #a39bff; }
    }
  </style>
  <rect class="tile" x="0.75" y="0.75" width="30.5" height="30.5" rx="7.25" stroke-width="1.5"/>
  <g class="glyph" transform="translate(4 4)" fill="none" stroke-width="2" stroke-linecap="round" stroke-linejoin="round">
    <path d="M12.83 2.18a2 2 0 0 0-1.66 0L2.6 6.08a1 1 0 0 0 0 1.83l8.58 3.91a2 2 0 0 0 1.66 0l8.58-3.9a1 1 0 0 0 0-1.83z"/>
    <path d="M2 12a1 1 0 0 0 .58.91l8.6 3.91a2 2 0 0 0 1.65 0l8.58-3.9A1 1 0 0 0 22 12"/>
    <path d="M2 17a1 1 0 0 0 .58.91l8.6 3.91a2 2 0 0 0 1.65 0l8.58-3.9A1 1 0 0 0 22 17"/>
  </g>
</svg>
